<svg xmlns="http://www.w3.org/2000/svg" viewBox="0 0 800 450" width="800" height="450">
  <rect width="800" height="450" fill="#0a0a1a"/>
  <defs><filter id="glow"><feGaussianBlur stdDeviation="6" result="b"/><feComposite in="SourceGraphic" in2="b" operator="over"/></filter></defs>
  <!-- Ceiling Bubble Cluster -->
  <g transform="translate(260, 90)" filter="url(#glow)">
    <circle cx="0" cy="0" r="18" fill="#06b6d4"/>
    <circle cx="40" cy="0" r="18" fill="#06b6d4"/>
    <circle cx="80" cy="0" r="18" fill="#ec4899"/>
    <circle cx="120" cy="0" r="18" fill="#ec4899"/>
    <circle cx="160" cy="0" r="18" fill="#facc15"/>
    <circle cx="200" cy="0" r="18" fill="#facc15"/>
    <circle cx="240" cy="0" r="18" fill="#06b6d4"/>
    <circle cx="280" cy="0" r="18" fill="#06b6d4"/>
    <!-- Row 2 -->
    <circle cx="20" cy="32" r="18" fill="#ec4899"/>
    <circle cx="60" cy="32" r="18" fill="#06b6d4"/>
    <circle cx="100" cy="32" r="18" fill="#06b6d4"/>
    <circle cx="140" cy="32" r="18" fill="#facc15"/>
    <circle cx="180" cy="32" r="18" fill="#a855f7"/>
    <circle cx="220" cy="32" r="18" fill="#06b6d4"/>
    <circle cx="260" cy="32" r="18" fill="#06b6d4"/>
  </g>
  <!-- Aiming Line & Cannon -->
  <line x1="400" y1="380" x2="360" y2="150" stroke="#00f0ff" stroke-width="4" stroke-dasharray="8,6" filter="url(#glow)"/>
  <g transform="translate(400, 380)" filter="url(#glow)">
    <circle cx="0" cy="0" r="28" fill="#1e293b" stroke="#38bdf8" stroke-width="4"/>
    <circle cx="0" cy="0" r="16" fill="#06b6d4"/>
  </g>
  <g transform="translate(400, 45)" text-anchor="middle">
    <text x="0" y="0" fill="#38bdf8" font-family="system-ui, sans-serif" font-weight="900" font-size="36" letter-spacing="2" filter="url(#glow)">CYBER BUBBLE SHOOTER: PLASMA POP</text>
  </g>
</svg>